/* XPM */
static char *_8d20f0c38a54fa9afa4081aec81cdd23IhBIhf3kkfahg3o[] = {
/* columns rows colors chars-per-pixel */
"32 32 67 1 ",
"  c black",
". c #000006",
"X c #00000B",
"o c #06060A",
"O c #0B0B0A",
"+ c #16170C",
"@ c #1F1F0A",
"# c #151611",
"$ c #131415",
"% c #29290F",
"& c #2D2F0D",
"* c #32320F",
"= c #242711",
"- c #2F2D1A",
"; c #2E2C1C",
": c #33341D",
"> c #414217",
", c #515210",
"< c #5F5F16",
"1 c #5A5C1B",
"2 c #5D5D18",
"3 c #615F0E",
"4 c #686713",
"5 c #686714",
"6 c #6B6B14",
"7 c #646518",
"8 c #626320",
"9 c #9F9E11",
"0 c #98971E",
"q c #9D9C1C",
"w c #A0A10E",
"e c #A5A60E",
"r c #A7A90F",
"t c #ABAB0B",
"y c #A9A80C",
"u c #B5B30E",
"i c #B3B212",
"p c #B6B610",
"a c #B0B115",
"s c #B6B71B",
"d c #B9B819",
"f c #C0BF1B",
"g c #D1D014",
"h c #D7D617",
"j c #DCDA14",
"k c #DCDC15",
"l c #DDDF1D",
"z c #E7E60D",
"x c yellow",
"c c #FBFB06",
"v c #FFFF04",
"b c #F4F40B",
"n c #F4F50E",
"m c #FFFF0A",
"M c #FFFF0F",
"N c #E5E511",
"B c #E1E114",
"V c #E9E710",
"C c #E3E41D",
"Z c #EDEC1F",
"A c #F0EF15",
"S c #FFFF13",
"D c #FFFF17",
"F c #F4F624",
"G c #F8F922",
"H c #FFFF21",
"J c #FFFF24",
/* pixels */
"                                ",
"                                ",
"                                ",
"                                ",
"                                ",
"           %&&&&&&*o            ",
"           Axvvvvvv$            ",
"       .sy9bxxxxxxvaeu>         ",
"     ..XMxxxxxxxxxxxxx<...      ",
"      dSxxxxxxxxxxxxxxmH.       ",
"     .txxxxxxxxxxxxxxxxM.       ",
"      wxxxxxxxxxxxxxxxxM.       ",
"    -GnxxxxxxxxxxxxxxxxvZ0      ",
"    -xxxxxxxxxNgvxxxxxxxxr      ",
"    -xxxxxxxxx,.Dxxxxxxxxe      ",
"    -xxxxxxxxx3 Sxxxxxxxxe      ",
"    -xxxxxxxvS5 Jmxxxxxxxe      ",
"    ;xxxxxxxh..  2vxxxxxxe      ",
"    -xxxxxxxj    4xxxxxxxe      ",
"    :vxxxxxxk    4xxxxxxvp      ",
"    o#ixxxxxB    6xxxxxM#+      ",
"      yxxxxzf    <VcxxxM        ",
"     .pvxxvO       lxxxS..      ",
"      >1mxv@       Cxxq8.       ",
"       .HSD=      .FMS7         ",
"                                ",
"                                ",
"                                ",
"                                ",
"                                ",
"                                ",
"                                "
};
