/* XPM */
static char *_eb33ee5bbe7433ba1c0c0286cca92c3thRgycDE2aB4MukD[] = {
/* columns rows colors chars-per-pixel */
"32 32 17 1 ",
"  c black",
". c #3A0000",
"X c #00003A",
"o c #660000",
"O c #000066",
"+ c #903A00",
"@ c #DB903A",
"# c #DBB666",
"$ c #003A90",
"% c #3A90DB",
"& c #66B6DB",
"* c #66B6FF",
"= c #B6DB90",
"- c #90DBB6",
"; c #FFFFB6",
": c #DBFFFF",
"> c white",
/* pixels */
"                                ",
"                                ",
"                                ",
"                                ",
"                                ",
"                                ",
"                                ",
"                                ",
"                                ",
"                                ",
"                                ",
"             O=.                ",
"          &+ O=. %@             ",
"          &+ O=. %@             ",
"          &+ O=. %@             ",
"          *>>>>>>>@             ",
"             O=.                ",
"         $#  O=. X-o            ",
"         $#  O=. X-o            ",
"         $:>>>>>>>;o            ",
"         $#      X-o            ",
"                                ",
"                                ",
"                                ",
"                                ",
"                                ",
"                                ",
"                                ",
"                                ",
"                                ",
"                                ",
"                                "
};
