/* XPM */
static char *f36f1b4aec4546d8ddcb6ce94520ea9bol0e033LBAe0PXzW[] = {
/* columns rows colors chars-per-pixel */
"32 32 67 1 ",
"  c black",
". c #000004",
"X c #00000B",
"o c #060509",
"O c #0B0B0A",
"+ c #16170C",
"@ c #1F1F0A",
"# c #151611",
"$ c #131415",
"% c #29290F",
"& c #2C2D0E",
"* c #32320F",
"= c #242711",
"- c #2F2D1A",
"; c #2E2C1C",
": c #33341D",
"> c #424214",
", c #515210",
"< c #5E5D15",
"1 c #5A5C1B",
"2 c #5D5D18",
"3 c #615F0E",
"4 c #686713",
"5 c #686714",
"6 c #6B6B14",
"7 c #646518",
"8 c #626320",
"9 c #9F9E11",
"0 c #98971E",
"q c #9D9C1C",
"w c #A0A10E",
"e c #A4A50D",
"r c #A7A90F",
"t c #ABAB0B",
"y c #A9A80C",
"u c #B5B30E",
"i c #B3B212",
"p c #B6B610",
"a c #B0B115",
"s c #B6B71B",
"d c #B9B819",
"f c #C0BF1B",
"g c #D1D014",
"h c #D7D617",
"j c #DCDA14",
"k c #DCDC15",
"l c #DDDF1D",
"z c #E7E60D",
"x c yellow",
"c c #FBFB06",
"v c #FFFF06",
"b c #F4F40B",
"n c #F4F50E",
"m c #FFFF0B",
"M c #FFFF0D",
"N c #E5E511",
"B c #E1E114",
"V c #E9E710",
"C c #E3E41D",
"Z c #EDEC1F",
"A c #F0EF15",
"S c #FFFF13",
"D c #FFFF16",
"F c #F4F624",
"G c #F8F922",
"H c #FFFF20",
"J c #FFFF24",
/* pixels */
"                                ",
"                                ",
"                                ",
"                                ",
"                                ",
"                                ",
"        .   0reeeeep+ .         ",
"        ....Zxxxxxxv# ..        ",
"        .HMMvxxxxxxxMMS8        ",
"       ><mxxxxxxxxxxxxxq7       ",
"       uxxxxxxxxxxxxxxxxS       ",
"       exxxxxxxxxxxxxxxxM       ",
"     o$axxxxxxxxxxxxxclCF       ",
"     *vvxxxxxxxxxvxxxV  .       ",
"     &vxxxxxxxxxm2446<          ",
"     &vxxxxxxvDSJ               ",
"     &vxxxxxxg.                 ",
"     &vxxxxxxN,35.              ",
"     &vxxxxxxxxxS.              ",
"     &xxxxxxxxxxvhjkBf          ",
"     %AbxxxxxxxxxxxxxzO@=       ",
"       9xxxxxxxxxxxxxxvvD       ",
"       yxxxxxxxxxxxxxxxxS       ",
"       sMxxxxxxxxxxxxxxmH       ",
"       .XSxxxxxxxxxxxxv1.       ",
"        .dtwnxxxxxxxiyp>        ",
"        . . Gxxxxxxv# .         ",
"            -----;-:o           ",
"                                ",
"                                ",
"                                ",
"                                "
};
