/* XPM */
static char *_a1acdcce9b74e2fac0166ac2acf5be0Wkl35fxcaEmOZVhY[] = {
/* columns rows colors chars-per-pixel */
"32 32 67 1 ",
"  c black",
". c #000004",
"X c #00000B",
"o c #060509",
"O c #0B0B0A",
"+ c #16170C",
"@ c #1F1F0A",
"# c #151412",
"$ c #131415",
"% c #29290F",
"& c #2C2D0E",
"* c #32320F",
"= c #242711",
"- c #2C2C1B",
"; c #2E2C1C",
": c #33341D",
"> c #424214",
", c #515210",
"< c #5F5F16",
"1 c #5A5C1B",
"2 c #5D5D18",
"3 c #615F0E",
"4 c #686713",
"5 c #6B6B14",
"6 c #646518",
"7 c #626320",
"8 c #9F9E11",
"9 c #98971E",
"0 c #9D9C1C",
"q c #A0A10E",
"w c #A4A50D",
"e c #A7A90F",
"r c #ABAB0B",
"t c #A9A80C",
"y c #B5B30E",
"u c #B3B212",
"i c #B6B610",
"p c #B0B115",
"a c #B6B71B",
"s c #B9B819",
"d c #C0BF1B",
"f c #D1D014",
"g c #D7D617",
"h c #DCDA14",
"j c #DCDC15",
"k c #DDDF1D",
"l c #E7E60D",
"z c #FFFF03",
"x c #FBFB06",
"c c #FFFF04",
"v c #F4F40B",
"b c #F4F50E",
"n c #FFFF0A",
"m c #FFFF0F",
"M c #E5E511",
"N c #E1E114",
"B c #E9E710",
"V c #E3E41D",
"C c #EDEC1F",
"Z c #F0EF15",
"A c #FFFF13",
"S c #FFFF16",
"D c #FFFF17",
"F c #F4F624",
"G c #F8F922",
"H c #FFFF21",
"J c #FFFF24",
/* pixels */
"                                ",
"                                ",
"                                ",
"                                ",
"                                ",
"                                ",
"                                ",
"         6AmF.      =DAH.       ",
"       .70zzV       @czn1>      ",
"      ..Azzzk       Oczzci.     ",
"        mzzzxB<    dlzzzzt      ",
"      +#mzzzzz5    Nzzzzzu#o    ",
"      yzzzzzzz4    jzzzzzzc:    ",
"      wzzzzzzz4    hzzzzzzz-    ",
"      wzzzzzzc2  ..gzzzzzzz;    ",
"      wzzzzzzznJ 4mczzzzzzz-    ",
"      wzzzzzzzzA 3zzzzzzzzz-    ",
"      wzzzzzzzzD ,zzzzzzzzz-    ",
"      ezzzzzzzzcfMzzzzzzzzz-    ",
"      9CczzzzzzzzzzzzzzzzbG-    ",
"       .mzzzzzzzzzzzzzzzzq      ",
"       .mzzzzzzzzzzzzzzzzr.     ",
"       .DnzzzzzzzzzzzzzzAs      ",
"      ...<zzzzzzzzzzzzzmX..     ",
"         >ywpczzzzzzv8ta.       ",
"            $ccczzzzZ           ",
"            o*&&&&&&%           ",
"                                ",
"                                ",
"                                ",
"                                ",
"                                "
};
